<svg xmlns="http://www.w3.org/2000/svg" xmlns:xlink="http://www.w3.org/1999/xlink" width="114.866" height="39.609" viewBox="0 0 114.866 39.609"><defs><clipPath id="a"><path d="M230.867,42.6l-.513-2.328c-.305-1.137-.693-3.091-.693-3.091h-.041s-.375,1.954-.679,3.091l-.555,2.328Zm-4.213-8.69a1.629,1.629,0,0,1,1.718-1.233h2.536a1.64,1.64,0,0,1,1.719,1.233l4.532,13.735a1.184,1.184,0,0,1-1.233,1.746h-1.885a1.637,1.637,0,0,1-1.719-1.275l-.346-1.621h-4.712l-.347,1.621a1.575,1.575,0,0,1-1.677,1.275h-1.885a1.181,1.181,0,0,1-1.233-1.746Z" fill="none"/></clipPath><clipPath id="b"><rect width="116" height="41" transform="translate(123 10)" fill="none"/></clipPath><clipPath id="c"><path d="M210.078,45.937l.887-1.275c.554-.818,1.192-.859,2.093-.374a6.343,6.343,0,0,0,2.772.956c.956,0,1.233-.346,1.233-.748,0-1.76-7.068-1.414-7.068-6.764,0-3.2,2.647-5.349,6.209-5.349a9.2,9.2,0,0,1,4.643,1.206,1.472,1.472,0,0,1,.485,2.092l-.679,1.331c-.555,1.095-1.3.9-2.065.54a5.534,5.534,0,0,0-2.467-.748c-.929,0-1.262.319-1.262.762,0,1.9,7.083,1.3,7.083,6.666,0,2.883-2.19,5.419-6.14,5.419a9.821,9.821,0,0,1-5.433-1.621A1.334,1.334,0,0,1,210.078,45.937Z" fill="none"/></clipPath><clipPath id="e"><path d="M197.424,34.184a1.363,1.363,0,0,1,1.539-1.51h1.857a1.343,1.343,0,0,1,1.511,1.51V45.2h4.989a1.374,1.374,0,0,1,1.538,1.51v1.164a1.374,1.374,0,0,1-1.538,1.511h-8.371a1.374,1.374,0,0,1-1.538-1.511V34.184Z" fill="none"/></clipPath><clipPath id="g"><path d="M187.46,45.2c2.231,0,3.769-1.83,3.769-4.283a3.767,3.767,0,1,0-7.511,0C183.718,43.359,185.242,45.2,187.46,45.2Zm0-12.806c5.294,0,8.828,3.742,8.828,8.523a8.815,8.815,0,0,1-17.629,0C178.645,36.139,182.152,32.4,187.46,32.4Z" fill="none"/></clipPath><clipPath id="i"><path d="M171.66,45.424a1.381,1.381,0,0,0,1.483-1.344,1.345,1.345,0,0,0-1.469-1.3h-1.76v2.647Zm-.277-6.541a1.108,1.108,0,0,0,1.109-1.137,1.067,1.067,0,0,0-1.206-1.108h-1.372V38.9h1.469Zm-6.362-4.7a1.363,1.363,0,0,1,1.539-1.51h4.767c3.576,0,6.071,1.469,6.071,4.421a4.149,4.149,0,0,1-1.885,3.534v.042a3.628,3.628,0,0,1,2.55,3.645c0,3.853-3.326,5.072-6.805,5.072h-4.7a1.375,1.375,0,0,1-1.539-1.511Z" fill="none"/></clipPath><clipPath id="k"><path d="M229.453,25.425c2.135,0,3.6-1.76,3.6-4.088a3.6,3.6,0,1,0-7.179,0C225.878,23.679,227.333,25.425,229.453,25.425Zm0-12.237c5.059,0,8.441,3.575,8.441,8.149a8.427,8.427,0,0,1-16.853,0C221.027,16.763,224.381,13.188,229.453,13.188Z" fill="none"/></clipPath><clipPath id="m"><path d="M213.9,20.491c1.109,0,1.663-.485,1.663-1.69a1.114,1.114,0,0,0-.707-1.178,3.067,3.067,0,0,0-1.247-.181H212.9v3.049Zm-5.682-5.6a1.3,1.3,0,0,1,1.469-1.441h4.338a10.106,10.106,0,0,1,3.174.333,4.875,4.875,0,0,1,3.132,4.8,5.225,5.225,0,0,1-2.218,4.463v.041a6.134,6.134,0,0,1,.707,1.026l2,3.548c.624,1.108.069,1.76-1,1.76h-2.065a1.776,1.776,0,0,1-1.705-1.026l-2.023-3.908h-1.109v3.493a1.289,1.289,0,0,1-1.441,1.441H209.7a1.309,1.309,0,0,1-1.469-1.441V14.892Z" fill="none"/></clipPath><clipPath id="o"><path d="M196.787,14.892a1.3,1.3,0,0,1,1.469-1.441H205.7a1.289,1.289,0,0,1,1.441,1.441V16a1.3,1.3,0,0,1-1.441,1.441h-4.228v1.927h3.022a1.309,1.309,0,0,1,1.469,1.441v1.109a1.3,1.3,0,0,1-1.469,1.441h-3.022V25.4h4.491a1.309,1.309,0,0,1,1.469,1.441v1.109a1.309,1.309,0,0,1-1.469,1.441h-7.706a1.309,1.309,0,0,1-1.469-1.441Z" fill="none"/></clipPath><clipPath id="q"><path d="M181.861,14.892a1.288,1.288,0,0,1,1.441-1.441h1.8a1.289,1.289,0,0,1,1.441,1.441v8.552c0,1.33.873,1.981,2.176,1.981,1.33,0,2.2-.637,2.2-1.954V14.892a1.278,1.278,0,0,1,1.442-1.441h1.774a1.277,1.277,0,0,1,1.441,1.441v8.552c0,3.617-2.688,6.236-6.846,6.236-4.2,0-6.888-2.619-6.888-6.236V14.892Z" fill="none"/></clipPath><clipPath id="s"><path d="M168.985,21.337a3.6,3.6,0,1,1,7.179,0,4.818,4.818,0,0,1-.194,1.372,1.942,1.942,0,0,0-2.689.042l-.013.013a1.936,1.936,0,0,0-.125,2.592,4.1,4.1,0,0,1-.6.056C170.454,25.425,168.985,23.679,168.985,21.337Zm12.03,0c0-4.574-3.382-8.149-8.44-8.149a7.992,7.992,0,0,0-8.413,8.149,8.1,8.1,0,0,0,8.413,8.357,9.057,9.057,0,0,0,4.005-.887l.125.125a1.941,1.941,0,0,0,2.73,0l.014-.014a1.946,1.946,0,0,0,.083-2.647A8.675,8.675,0,0,0,181.015,21.337Z" fill="none"/></clipPath><clipPath id="u"><path d="M134.378,40.213a2.121,2.121,0,1,1,2.121-2.12A2.12,2.12,0,0,1,134.378,40.213Zm16.756,1.317a3.465,3.465,0,1,1,3.465-3.465A3.466,3.466,0,0,1,151.134,41.53Zm-4.1-11.559a4.271,4.271,0,0,0-4.38-4.684.151.151,0,0,1-.11-.25l6.056-6.056a3.459,3.459,0,0,1,4.892,4.892l-6.209,6.209A.145.145,0,0,1,147.032,29.971ZM143.664,33.7l-6.777,6.778a3.46,3.46,0,0,1-4.892-4.893l6.777-6.777a3.459,3.459,0,0,1,4.892,4.892ZM134.351,18a3.465,3.465,0,1,1-3.465,3.465A3.466,3.466,0,0,1,134.351,18Zm28.037,11.725a19.68,19.68,0,1,0-19.68,19.625h17.74l-4.976-4.685A19.532,19.532,0,0,0,162.388,29.722Z" fill="none"/></clipPath></defs><g transform="translate(-123.028 -10.042)"><g clip-path="url(#a)"><g clip-path="url(#b)"><rect width="25.28" height="26.714" transform="translate(217 27.674)" fill="#05869b"/></g></g><g clip-path="url(#c)"><g clip-path="url(#b)"><rect width="22.238" height="27.268" transform="translate(204.704 27.383)" fill="#05869b"/></g></g><g clip-path="url(#e)"><g clip-path="url(#b)"><rect width="21.448" height="26.714" transform="translate(192.411 27.674)" fill="#05869b"/></g></g><g clip-path="url(#g)"><g clip-path="url(#b)"><rect width="27.629" height="27.254" transform="translate(173.659 27.397)" fill="#05869b"/></g></g><g clip-path="url(#i)"><g clip-path="url(#b)"><rect width="23.042" height="26.714" transform="translate(160.021 27.674)" fill="#05869b"/></g></g><g clip-path="url(#k)"><g clip-path="url(#b)"><rect width="26.853" height="26.506" transform="translate(216.041 8.188)" fill="#de9e1f"/></g></g><g clip-path="url(#m)"><g clip-path="url(#b)"><rect width="22.86" height="25.966" transform="translate(203.221 8.451)" fill="#de9e1f"/></g></g><g clip-path="url(#o)"><g clip-path="url(#b)"><rect width="20.644" height="25.938" transform="translate(191.787 8.451)" fill="#de9e1f"/></g></g><g clip-path="url(#q)"><g clip-path="url(#b)"><rect width="23.735" height="26.229" transform="translate(176.847 8.451)" fill="#de9e1f"/></g></g><g clip-path="url(#s)"><g clip-path="url(#b)"><rect width="26.853" height="26.506" transform="translate(159.162 8.188)" fill="#de9e1f"/></g></g><g clip-path="url(#u)"><g clip-path="url(#b)"><rect width="49.36" height="49.305" transform="translate(118.028 5.042)" fill="#de9e1f"/></g></g></g></svg>