<svg xmlns="http://www.w3.org/2000/svg" width="512" height="384" viewBox="0 0 512 384"><path d="M464,64H48A48.012,48.012,0,0,0,0,112V400a48.012,48.012,0,0,0,48,48H464a48.012,48.012,0,0,0,48-48V112A48.012,48.012,0,0,0,464,64ZM48,96H464a16.047,16.047,0,0,1,16,16v41.4c-21.9,18.5-53.2,44-150.6,121.3-16.9,13.4-50.2,45.7-73.4,45.3-23.2.4-56.6-31.9-73.4-45.3C85.2,197.4,53.9,171.9,32,153.4V112A16.047,16.047,0,0,1,48,96ZM464,416H48a16.047,16.047,0,0,1-16-16V195c22.8,18.7,58.8,47.6,130.7,104.7,20.5,16.4,56.7,52.5,93.3,52.3,36.4.3,72.3-35.5,93.3-52.3,71.9-57.1,107.9-86,130.7-104.7V400A16.047,16.047,0,0,1,464,416Z" transform="translate(0 -64)" fill="#fff"/></svg>