<svg xmlns="http://www.w3.org/2000/svg" width="536.006" height="512" viewBox="0 0 536.006 512">
  <path id="icon-half-star" d="M508.55,171.51,362.18,150.2,296.77,17.81a32.118,32.118,0,0,0-57.51,0L173.83,150.19,27.45,171.48C1.2,175.28-9.32,207.57,9.71,226.07l105.89,103L90.54,474.55C86.98,495.33,103.57,512,122.15,512a31.6,31.6,0,0,0,14.87-3.75l130.95-68.68,130.94,68.7a31.779,31.779,0,0,0,14.83,3.71c18.6,0,35.22-16.61,31.66-37.4L420.37,329.09,526.28,226.11c19.04-18.5,8.52-50.8-17.73-54.6ZM386.81,294.71l-18.12,17.62,4.28,24.88,19.52,113.45L290.36,397.07l-22.38-11.74.03-317.19,51.03,103.29,11.18,22.63,25.01,3.64,114.23,16.63Z" transform="translate(0.004 0)" fill="#fdcb13"/>
</svg>
