<svg xmlns="http://www.w3.org/2000/svg" width="496" height="496" viewBox="0 0 496 496"><path d="M384,250v12a12.035,12.035,0,0,1-12,12H274v98a12.035,12.035,0,0,1-12,12H250a12.035,12.035,0,0,1-12-12V274H140a12.035,12.035,0,0,1-12-12V250a12.035,12.035,0,0,1,12-12h98V140a12.035,12.035,0,0,1,12-12h12a12.035,12.035,0,0,1,12,12v98h98A12.035,12.035,0,0,1,384,250Zm120,6c0,137-111,248-248,248S8,393,8,256,119,8,256,8,504,119,504,256Zm-32,0c0-119.9-97.3-216-216-216C136.1,40,40,137.3,40,256c0,119.9,97.3,216,216,216C375.9,472,472,374.7,472,256Z" transform="translate(-8 -8)" fill="#18acc4"/></svg>