<svg xmlns="http://www.w3.org/2000/svg" width="576.169" height="448.1" viewBox="0 0 576.169 448.1"><path d="M569.9,441.1c-.5-.4-22.6-24.2-37.9-54.9,27.5-27.1,44-61.1,44-98.2,0-80-76.5-146.1-176.2-157.9C368.4,72.5,294.3,32,208,32,93.1,32,0,103.6,0,192c0,37,16.5,71,44,98.2C28.7,320.9,6.7,344.7,6.3,345.1a23.145,23.145,0,0,0,16.8,39c53.5,0,96.7-20.2,125.2-38.8a251.565,251.565,0,0,0,28,4.8c31.5,57.5,105.5,98,191.8,98a264.7,264.7,0,0,0,59.8-6.8c28.5,18.5,71.6,38.8,125.2,38.8a23.145,23.145,0,0,0,16.8-39ZM155.4,314l-13.2-3-11.4,7.4c-20.1,13.1-50.5,28.2-87.7,32.5a278.194,278.194,0,0,0,29.5-46.4L83,283.7,66.5,267.4C50.7,251.9,32,226.2,32,192c0-70.6,79-128,176-128s176,57.4,176,128S305,320,208,320A232.529,232.529,0,0,1,155.4,314ZM445.2,414.4,433.8,407l-13.2,3.1a232.529,232.529,0,0,1-52.6,6c-65.1,0-122-25.9-152.4-64.3C326.9,348.6,416,278.4,416,192a127.213,127.213,0,0,0-3.3-27.7C488.1,178.8,544,228.7,544,288c0,34.2-18.7,59.9-34.5,75.4L493,379.7l10.3,20.7a282.8,282.8,0,0,0,29.5,46.4c-37.1-4.2-67.5-19.4-87.6-32.4Z" transform="translate(0.007 -32)" fill="#fff"/></svg>