<svg xmlns="http://www.w3.org/2000/svg" width="496" height="496" viewBox="0 0 496 496">
  <path id="icon-info-circle-blue" d="M256,40c118.621,0,216,96.075,216,216,0,119.291-96.61,216-216,216C136.756,472,40,375.438,40,256,40,136.8,136.6,40,256,40m0-32C119.043,8,8,119.083,8,256,8,393,119.043,504,256,504S504,393,504,256C504,119.083,392.957,8,256,8ZM220,352h12V232H220a12,12,0,0,1-12-12v-8a12,12,0,0,1,12-12h48a12,12,0,0,1,12,12V352h12a12,12,0,0,1,12,12v8a12,12,0,0,1-12,12H220a12,12,0,0,1-12-12v-8A12,12,0,0,1,220,352Zm36-240a32,32,0,1,0,32,32A32,32,0,0,0,256,112Z" transform="translate(-8 -8)" fill="#007a8d"/>
</svg>
