<svg xmlns="http://www.w3.org/2000/svg" width="496" height="496" viewBox="0 0 496 496">
  <path id="icon-user-circle-secondary-blue" d="M248,8C111,8,0,119,0,256S111,504,248,504,496,393,496,256,385,8,248,8ZM376,429.6a214.408,214.408,0,0,1-256,0V416a64.059,64.059,0,0,1,64-64c11.1,0,27.5,11.4,64,11.4,36.6,0,52.8-11.4,64-11.4a64.059,64.059,0,0,1,64,64Zm30.6-27.5C399.8,355.7,360.3,320,312,320c-20.5,0-30.4,11.4-64,11.4S204.6,320,184,320c-48.3,0-87.8,35.7-94.6,82.1C53.9,363.6,32,312.4,32,256,32,136.9,128.9,40,248,40s216,96.9,216,216C464,312.4,442.1,363.6,406.6,402.1ZM248,120a88,88,0,1,0,88,88A88,88,0,0,0,248,120Zm0,144a56,56,0,1,1,56-56A56.036,56.036,0,0,1,248,264Z" transform="translate(0 -8)" fill="#007a8d"/>
</svg>
